<svg xmlns="http://www.w3.org/2000/svg" width="125" height="132.669" viewBox="0 0 125 132.669">
  <g id="box" transform="translate(-14.798 0)">
    <path d="M75.424.429,16.016,29.109A2.155,2.155,0,0,0,14.8,31.049v70.57a2.155,2.155,0,0,0,1.218,1.941l59.408,28.68a4.31,4.31,0,0,0,3.748,0l59.408-28.68a2.155,2.155,0,0,0,1.218-1.941V31.049a2.155,2.155,0,0,0-1.218-1.941L79.172.429A4.312,4.312,0,0,0,75.424.429Z" transform="translate(0)" fill="#ffdc71"/>
    <path d="M15.156,115.273a2.147,2.147,0,0,0-.358,1.18v70.571a2.155,2.155,0,0,0,1.218,1.941l59.408,28.68a4.308,4.308,0,0,0,1.874.429v-72.8Z" transform="translate(0 -85.403)" fill="#ffc107"/>
    <path d="M318.142,115.273a2.147,2.147,0,0,1,.358,1.18v70.571a2.155,2.155,0,0,1-1.218,1.941l-59.408,28.68a4.308,4.308,0,0,1-1.874.429v-72.8Z" transform="translate(-178.702 -85.403)" fill="#ffd350"/>
    <path d="M51.025,352.677a2.151,2.151,0,0,1-.934-.215l-9.172-4.428a2.155,2.155,0,1,1,1.873-3.881l9.172,4.428a2.155,2.155,0,0,1-.939,4.1Z" transform="translate(-18.449 -254.819)" fill="#ce2029"/>
    <path d="M59.5,319.839a2.15,2.15,0,0,1-.934-.215l-17.6-8.5a2.155,2.155,0,1,1,1.873-3.881l17.6,8.5a2.155,2.155,0,0,1-.939,4.1Z" transform="translate(-18.486 -227.476)" fill="#1e419b"/>
    <path d="M189.246,68.236,126.885,38.11l-16.438,7.968,62.5,30.173Z" transform="translate(-70.865 -28.235)" fill="#6ab3ff"/>
    <path d="M351.649,162.388v23.374a1.078,1.078,0,0,0,1.546.97l13.534-6.534a2.155,2.155,0,0,0,1.218-1.941V154.374Z" transform="translate(-249.567 -114.373)" fill="#1186ff"/>
  </g>
</svg>
