<svg width="662" height="625" viewBox="0 0 662 625" fill="none" xmlns="http://www.w3.org/2000/svg">
<rect width="662" height="625" fill="#F5F5F5"/>
<g clip-path="url(#clip0_0_1)">
<path d="M35.1329 126.464C50.6333 126.464 63.1989 115.936 63.1989 102.949C63.1989 89.962 50.6333 79.434 35.1329 79.434C19.6325 79.434 7.06689 89.962 7.06689 102.949C7.06689 115.936 19.6325 126.464 35.1329 126.464Z" fill="#27AE60"/>
<path d="M90.506 37.713C90.506 44.838 85.412 50.613 79.126 50.613C72.84 50.613 67.751 44.841 67.751 37.713C67.751 30.585 72.845 24.82 79.126 24.82C85.407 24.82 90.506 30.592 90.506 37.713Z" fill="#27AE60"/>
<path d="M578.989 432.682C578.989 446.089 565.406 456.958 548.648 456.958C531.89 456.958 518.307 446.088 518.307 432.682C518.307 419.276 531.89 408.41 548.648 408.41C565.406 408.41 578.989 419.28 578.989 432.682Z" fill="#27AE60"/>
<path d="M632.108 321.683C632.108 328.908 624.891 334.768 615.992 334.768C607.093 334.768 599.872 328.908 599.872 321.683C599.872 314.458 607.089 308.598 615.992 308.598C624.895 308.598 632.108 314.458 632.108 321.683Z" fill="#27AE60"/>
<g opacity="0.13">
<g style="mix-blend-mode:multiply">
<path d="M451.192 114.622C337.609 127.496 280.023 38.671 203.409 36.166C128.282 33.707 84.831 99.156 111.502 204.659C141.81 324.552 84.884 385.49 90.168 483.138C92.395 524.208 133.352 582.575 184.151 576.99C250.865 569.661 277.851 492.92 336.802 440.048C389.709 392.597 481.825 359.693 537.302 325.085C591.659 291.172 655.855 266.485 660.917 193.559C664.264 145.259 621.49 95.318 451.192 114.622Z" fill="#00FF6C"/>
</g>
<g style="mix-blend-mode:multiply">
<path d="M577.415 380.351C542.086 438.291 472.726 414.618 414.115 409.443C299.205 399.298 221.293 551.951 100.642 473.058C-32.9389 385.706 -33.663 226.966 99.182 165.972C470.919 -4.69499 609.483 327.744 577.415 380.351Z" fill="#27AE60"/>
</g>
<path d="M18.8301 624.813C18.2873 624.813 17.7566 624.653 17.3052 624.351C16.8538 624.05 16.502 623.621 16.2944 623.12C16.0868 622.619 16.0326 622.067 16.1388 621.534C16.245 621.002 16.5068 620.513 16.8911 620.13L166.291 470.73C166.809 470.229 167.502 469.952 168.223 469.958C168.943 469.964 169.632 470.253 170.141 470.762C170.65 471.271 170.939 471.96 170.945 472.681C170.951 473.401 170.673 474.095 170.172 474.612L20.7721 624.012C20.2561 624.525 19.5578 624.813 18.8301 624.813Z" fill="white"/>
<path d="M239.473 165.785C238.93 165.785 238.4 165.625 237.948 165.323C237.497 165.022 237.145 164.594 236.937 164.093C236.729 163.591 236.674 163.04 236.78 162.507C236.885 161.975 237.146 161.486 237.53 161.102L397.83 0.802018C398.083 0.540324 398.386 0.331671 398.721 0.188218C399.056 0.0447648 399.416 -0.0306189 399.78 -0.033542C400.144 -0.0364651 400.506 0.0331318 400.843 0.171193C401.18 0.309254 401.486 0.513018 401.743 0.770611C402.001 1.02821 402.205 1.33448 402.343 1.67158C402.481 2.00868 402.55 2.36987 402.547 2.7341C402.544 3.09834 402.469 3.45833 402.325 3.7931C402.181 4.12787 401.973 4.43073 401.711 4.68402L241.411 164.984C241.157 165.239 240.855 165.441 240.522 165.578C240.189 165.716 239.833 165.786 239.473 165.785Z" fill="white"/>
</g>
</g>
<defs>
<clipPath id="clip0_0_1">
<rect width="661.088" height="624.813" fill="white"/>
</clipPath>
</defs>
</svg>
