<svg width="386" height="376" viewBox="0 0 386 376" fill="none" xmlns="http://www.w3.org/2000/svg">
  <g opacity="0.15">
    <path d="M192.616 343.825C181.764 343.825 174.462 341.69 168.939 336.902C163.758 332.411 160.402 325.885 156.153 317.622C149.743 305.158 140.964 288.088 120.342 269.003C102.75 252.722 78.3835 243.946 56.8849 236.202C44.7185 231.82 33.2268 227.68 23.8108 222.59C18.7919 219.877 14.7579 217.112 11.4785 214.135C7.8473 210.839 5.19695 207.344 3.376 203.45C-0.806349 194.507 -0.430048 183.563 4.52645 169.992C10.5507 153.497 21.6353 134.544 36.5819 115.181C51.5716 95.7627 69.8609 76.6944 89.4727 60.0377C99.6744 51.3733 110.167 43.4174 120.659 36.3912C131.626 29.0472 142.63 22.6962 153.365 17.5146C164.657 12.0635 175.756 7.85896 186.352 5.01771C197.531 2.01991 208.308 0.499908 218.382 0.499908C228.455 0.499908 238.882 2.33601 249.374 5.95721C259.346 9.39901 269.475 14.4847 279.48 21.0729C289.043 27.3701 298.536 35.0658 307.696 43.9462C316.536 52.516 325.054 62.1761 333.015 72.6581C348.625 93.2112 361.747 116.458 370.96 139.886C375.59 151.659 379.169 163.317 381.597 174.537C384.093 186.076 385.359 197.098 385.359 207.298C385.359 227.062 379.178 246.014 366.989 263.628C361.361 271.76 354.428 279.609 346.381 286.956C338.681 293.988 329.894 300.624 320.264 306.681C310.982 312.52 300.877 317.847 290.23 322.514C279.857 327.061 268.972 330.982 257.877 334.169C246.919 337.316 235.792 339.737 224.805 341.365C213.788 342.997 202.958 343.825 192.616 343.825Z" fill="url(#paint0_linear_2_4)"/>
    <path d="M218.382 0.999908C208.351 0.999908 197.619 2.51416 186.481 5.50067C175.916 8.3338 164.847 12.5274 153.582 17.9649C142.868 23.1363 131.885 29.4756 120.938 36.8067C110.461 43.8224 99.9836 51.7666 89.7964 60.4188C70.2108 77.0533 51.9463 96.0955 36.9776 115.487C22.062 134.809 11.0029 153.716 4.99608 170.163C0.0875678 183.603 -0.294237 194.422 3.82887 203.239C5.62123 207.071 8.23332 210.514 11.8145 213.765C15.0637 216.714 19.0655 219.457 24.0485 222.151C33.4314 227.223 44.906 231.356 57.0543 235.731C78.5977 243.491 103.015 252.286 120.682 268.636C141.369 287.781 150.17 304.896 156.597 317.394C160.822 325.608 164.158 332.096 169.266 336.524C174.692 341.228 181.893 343.325 192.616 343.325C202.934 343.325 213.739 342.499 224.731 340.871C235.697 339.246 246.802 336.829 257.739 333.688C268.813 330.508 279.677 326.594 290.029 322.056C300.653 317.399 310.736 312.083 319.998 306.258C329.603 300.217 338.366 293.598 346.044 286.587C354.063 279.265 360.971 271.445 366.577 263.344C378.708 245.815 384.859 226.958 384.859 207.298C384.859 197.133 383.597 186.147 381.108 174.643C378.686 163.449 375.115 151.817 370.495 140.069C361.298 116.683 348.2 93.4776 332.617 72.9605C324.671 62.4985 316.169 52.8575 307.348 44.3052C298.211 35.4465 288.742 27.7705 279.205 21.4904C269.235 14.9252 259.143 9.85806 249.21 6.42981C238.771 2.82681 228.399 0.999908 218.382 0.999908ZM218.382 -9.15527e-05C301.83 -9.15527e-05 385.859 123.849 385.859 207.298C385.859 290.746 276.064 344.325 192.616 344.325C151.309 344.325 167.142 312.996 120.003 269.37C72.8628 225.744 -20.538 237.163 4.05678 169.82C28.6515 102.478 134.933 -9.15527e-05 218.382 -9.15527e-05Z" fill="#707070"/>
  </g>
  <g opacity="0.14">
    <path d="M94.9298 375.321C91.5772 375.321 87.8734 375.057 83.9212 374.536C75.3609 373.407 66.0866 371.172 57.1007 368.071C52.2752 366.406 47.5799 364.505 43.145 362.421C38.4246 360.204 33.9742 357.766 29.9174 355.176C20.9256 349.436 13.8571 342.974 8.90813 335.968C3.33102 328.074 0.503182 319.532 0.503182 310.582C0.503182 309.639 0.502583 308.703 0.501999 307.773C0.490418 289.452 0.4804 273.629 5.11995 262.57C7.54414 256.792 11.1122 252.61 16.028 249.786C18.649 248.281 21.7288 247.133 25.1819 246.376C28.7621 245.591 32.8887 245.193 37.4469 245.193C42.1015 245.193 47.1251 245.859 52.3783 247.175C57.4511 248.445 62.7305 250.317 68.07 252.738C78.5368 257.484 88.9931 264.228 98.3085 272.241C107.823 280.425 115.794 289.646 121.359 298.905C124.288 303.778 126.55 308.654 128.082 313.4C129.687 318.373 130.502 323.235 130.502 327.853C130.502 336.37 129.81 343.446 128.386 349.486C127.68 352.483 126.778 355.239 125.707 357.675C124.639 360.106 123.365 362.302 121.921 364.203C120.484 366.095 118.829 367.761 117.001 369.154C115.183 370.539 113.13 371.703 110.9 372.614C106.437 374.435 101.213 375.321 94.9298 375.321Z" fill="url(#paint1_linear_2_4)"/>
    <path d="M37.4469 245.693C32.9246 245.693 28.8341 246.087 25.289 246.864C21.8858 247.611 18.8538 248.74 16.2771 250.22C11.4599 252.987 7.96121 257.09 5.58102 262.764C0.980454 273.729 0.990448 289.505 1.002 307.773C1.00259 308.702 1.00319 309.639 1.00319 310.582C1.00319 319.427 3.80019 327.871 9.3165 335.68C14.2279 342.632 21.2496 349.05 30.1865 354.755C34.2252 357.333 38.6566 359.76 43.3576 361.969C47.7764 364.045 52.4551 365.939 57.2638 367.598C66.2185 370.688 75.459 372.916 83.9865 374.04C87.9171 374.558 91.599 374.821 94.9298 374.821C101.147 374.821 106.309 373.947 110.711 372.151C112.9 371.257 114.915 370.115 116.698 368.756C118.49 367.391 120.113 365.757 121.523 363.901C122.943 362.031 124.197 359.869 125.249 357.474C126.309 355.065 127.2 352.339 127.9 349.371C129.314 343.37 130.002 336.331 130.002 327.853C130.002 323.287 129.196 318.477 127.606 313.554C126.085 308.844 123.839 304.002 120.93 299.163C115.392 289.948 107.457 280.77 97.9825 272.62C88.7026 264.638 78.2876 257.92 67.8635 253.193C62.5514 250.784 57.3005 248.923 52.2569 247.66C47.0434 246.354 42.0606 245.693 37.4469 245.693ZM37.4469 244.693C75.8745 244.693 131.002 289.425 131.002 327.853C131.002 366.281 116.605 379.349 83.8558 375.031C51.1062 370.714 0.00318961 349.01 0.00318961 310.582C0.00318961 272.154 -0.980759 244.693 37.4469 244.693Z" fill="#707070"/>
  </g>
  <defs>
    <linearGradient id="paint0_linear_2_4" x1="192.93" y1="0.499908" x2="192.93" y2="343.825" gradientUnits="userSpaceOnUse">
    <stop stop-color="#1E419B"/>
    <stop offset="1" stop-color="#CE2029"/>
    </linearGradient>
    <linearGradient id="paint1_linear_2_4" x1="65.5012" y1="245.193" x2="65.5012" y2="375.321" gradientUnits="userSpaceOnUse">
    <stop stop-color="#1E419B"/>
    <stop offset="1" stop-color="#CE2029"/>
    </linearGradient>
  </defs>
</svg>
