<svg xmlns="http://www.w3.org/2000/svg" width="205.883" height="171.596" viewBox="0 0 205.883 171.596">
  <g transform="translate(-850 -397.606)">
    <path d="M70.262-4.785C116.741-24.8,179.668-42.656,195.3-15.605S181.681,21.842,180.27,58.5s15.336,51.935,0,66.56S133.645,117,104.5,117C46.786,117,0,90.809,0,58.5S23.783,15.233,70.262-4.785Z" transform="translate(850 439.229)" fill="#d6eaff"/>
    <path d="M65.174-6.565c43.113-18.568,103.35,24.7,102.04,58.7s14.225,48.174,0,61.739S123.967,106.4,96.932,106.4C43.4,106.4,0,82.106,0,52.137S22.061,12,65.174-6.565Z" transform="matrix(-0.985, 0.174, -0.174, -0.985, 1053.969, 514.241)" fill="#90c6fe"/>
    <g transform="translate(875.976 416.553)">
      <path d="M81.948.475l-65.8,31.766a2.387,2.387,0,0,0-1.349,2.15v78.165a2.387,2.387,0,0,0,1.349,2.15l65.8,31.766a4.774,4.774,0,0,0,4.151,0l65.8-31.766a2.387,2.387,0,0,0,1.349-2.15V34.391a2.387,2.387,0,0,0-1.349-2.15L86.1.475A4.776,4.776,0,0,0,81.948.475Z" transform="translate(0 0)" fill="#ffdc71"/>
      <path d="M15.195,115.273a2.378,2.378,0,0,0-.4,1.307v78.165a2.387,2.387,0,0,0,1.349,2.15l65.8,31.766a4.771,4.771,0,0,0,2.076.475V148.5Z" transform="translate(0 -82.189)" fill="#ffc107"/>
      <path d="M324.829,115.273a2.378,2.378,0,0,1,.4,1.307v78.165a2.387,2.387,0,0,1-1.349,2.15l-65.8,31.766a4.772,4.772,0,0,1-2.076.475V148.5Z" transform="translate(-171.976 -82.189)" fill="#ffd350"/>
      <path d="M52.244,353.618a2.382,2.382,0,0,1-1.035-.238l-10.159-4.9a2.386,2.386,0,1,1,2.075-4.3l10.159,4.9a2.387,2.387,0,0,1-1.04,4.536Z" transform="translate(-17.755 -245.228)" fill="#e74c3c"/>
      <path d="M61.629,321.217a2.382,2.382,0,0,1-1.035-.238l-19.5-9.411a2.386,2.386,0,1,1,2.075-4.3l19.5,9.411a2.387,2.387,0,0,1-1.04,4.536Z" transform="translate(-17.79 -218.914)" fill="#1e419b"/>
      <path d="M197.726,71.478,128.655,38.11l-18.208,8.825,69.226,33.42Z" transform="translate(-68.197 -27.172)" fill="#6ab3ff"/>
      <path d="M351.649,163.251v25.89a1.194,1.194,0,0,0,1.713,1.075l14.991-7.237a2.387,2.387,0,0,0,1.349-2.15V154.374Z" transform="translate(-240.173 -110.068)" fill="#1186ff"/>
    </g>
  </g>
</svg>
