<svg xmlns="http://www.w3.org/2000/svg" width="373.718" height="357.086" viewBox="0 0 373.718 357.086">
  <g id="Group_334" data-name="Group 334" transform="translate(-160.315 -102.301)">
    <g id="Group_332" data-name="Group 332" transform="translate(163.61 102.301)">
      <g id="Group_321" data-name="Group 321" transform="translate(3.312)">
        <circle id="Ellipse_80" data-name="Ellipse 80" cx="126.249" cy="126.249" r="126.249" transform="translate(0 178.543) rotate(-45)" fill="#d2dfff"/>
        <path id="Path_361" data-name="Path 361" d="M317.283,213.662v42.446a127,127,0,0,1-15.668,18.223V213.662h-.024v-.144c-.071-.314-7.688-6.629-13.546-11.425v-2.65l7.088-1.833a13.481,13.481,0,0,1,8.7.675c1.229.531,2.506,1.036,3.784,1.446v5.544c5.857,4.8,9.57,7.929,9.641,8.243v.144Z" transform="translate(-35.628 -4.772)" fill="#7fd6cb" opacity="0.73"/>
      </g>
      <g id="Group_331" data-name="Group 331" transform="translate(0 16.564)">
        <g id="Group_322" data-name="Group 322" transform="translate(2.172)">
          <path id="Path_362" data-name="Path 362" d="M163.011,110.469,200.059,197.4l27.078-18.524,15.692,22.8,2.832-38.464,32.771-19.969Z" transform="translate(-163.011 -110.469)" fill="#ffb031"/>
          <path id="Path_363" data-name="Path 363" d="M217.714,163.788l-33.081,22.639L211.712,167.9,227.4,190.7l2.832-38.464-52.219-31.1Z" transform="translate(-147.586 -99.5)" fill="#ff9433"/>
          <path id="Path_364" data-name="Path 364" d="M229.542,161.668l-51.525-40.527,52.219,31.1Z" transform="translate(-147.586 -99.5)" fill="#f73"/>
        </g>
        <g id="Group_323" data-name="Group 323" transform="translate(31.829 96.343)">
          <path id="Path_365" data-name="Path 365" d="M203.256,163.68c-.292-1.693-.663-3.383-1.1-5.023l2.541-.679c.458,1.716.846,3.484,1.152,5.254Z" transform="translate(-152.431 -157.978)" fill="#00c8b7"/>
          <path id="Path_366" data-name="Path 366" d="M197.782,214.615a21.733,21.733,0,0,1-10.561-3.525l1.454-2.19a19.117,19.117,0,0,0,9.282,3.091Zm10.924-2.146-1.16-2.358a26.47,26.47,0,0,0,7.866-6.2l1.957,1.756A28.989,28.989,0,0,1,208.706,212.469Zm-28.8-9.777a21.684,21.684,0,0,1-2.267-9.555c0-.266.006-.533.016-.8l.032-.57,2.622.193-.026.479c-.008.237-.014.468-.014.7a19.02,19.02,0,0,0,2,8.391Zm101.75-.6-.012-2.63c3.425-.016,6.95-.156,10.476-.416l.193,2.622C288.723,201.934,285.138,202.076,281.652,202.092Zm-10.667-.345-1.679-.13c-3.232-.27-6.163-.633-8.955-1.117l.446-2.592c2.717.47,5.573.825,8.726,1.089l1.645.124Zm31.919-1.2-.355-2.606c3.383-.46,6.868-1.036,10.363-1.71l.5,2.582C309.87,199.5,306.336,200.085,302.9,200.551Zm-53-2.659a50.935,50.935,0,0,1-8.615-3.817c-.412-.231-.823-.473-1.229-.718l1.359-2.253c.383.231.769.458,1.16.677a48.32,48.32,0,0,0,8.172,3.622Zm-26.245-1.046-2.281-1.31a59.059,59.059,0,0,0,4.338-9.379l2.474.892A61.927,61.927,0,0,1,223.656,196.846Zm100.148-.292L323.185,194c3.289-.8,6.712-1.705,10.172-2.7l.724,2.529C330.585,194.832,327.13,195.747,323.8,196.554Zm20.435-5.824-.811-2.5q5.013-1.624,9.977-3.393l.88,2.48Q349.291,189.088,344.239,190.73Zm-112.962-3.466a72.782,72.782,0,0,0-7.83-5.151l-.88-.466,1.2-2.338c.314.16.627.329.937.5a76.168,76.168,0,0,1,8.118,5.333ZM183.99,183.31l-1.839-1.88a22.466,22.466,0,0,1,9.679-5.193l.884,2.48A20.48,20.48,0,0,0,183.99,183.31Zm28.971-5.135a41.781,41.781,0,0,0-9.113-1.008l-1.067.012-.065-2.628a44.489,44.489,0,0,1,10.821,1.059Zm18-1.549-2.59-.46a61.055,61.055,0,0,0,.933-10.3l2.63.012A63.606,63.606,0,0,1,230.965,176.626Z" transform="translate(-177.635 -149.868)" fill="#00c8b7"/>
          <path id="Path_367" data-name="Path 367" d="M270.183,176.822l-.935-2.458q2.455-.937,4.9-1.9l.955,2.452Q272.652,175.878,270.183,176.822Z" transform="translate(-83.466 -143.084)" fill="#00c8b7"/>
        </g>
        <path id="Path_368" data-name="Path 368" d="M311.868,220.167a2.629,2.629,0,0,1-.253-5.246,62.471,62.471,0,0,0,41.172-21.364,2.629,2.629,0,0,1,3.965,3.454,67.68,67.68,0,0,1-44.628,23.144Q311.993,220.167,311.868,220.167Z" transform="translate(-10.529 -25.991)" fill="#00c8b7"/>
        <g id="Group_327" data-name="Group 327" transform="translate(86.047 73.819)">
          <g id="Group_326" data-name="Group 326">
            <path id="Path_369" data-name="Path 369" d="M387.61,242.7,295.99,296.728,204.371,242.7a.524.524,0,0,1,.014-.148c.075-.343,5.133-4.565,12.845-10.831.073-.059.134-.118.209-.178,25.3-20.541,78.551-62.605,78.551-62.605S349.244,211,374.542,231.541c7.832,6.355,12.979,10.651,13.054,11.009A.523.523,0,0,1,387.61,242.7Z" transform="translate(-204.371 -124.19)" fill="#7a4c08"/>
            <g id="Group_324" data-name="Group 324" transform="translate(15.094)">
              <path id="Path_370" data-name="Path 370" d="M326.019,146.871H227.167a15.354,15.354,0,0,0-15.353,15.353V311.687a15.352,15.352,0,0,0,15.353,15.351H351.031a15.352,15.352,0,0,0,15.353-15.351V187.236Z" transform="translate(-211.814 -146.871)" fill="#fff"/>
              <path id="Path_371" data-name="Path 371" d="M268.131,171.885a15.351,15.351,0,0,0,15.353,15.351H308.5l-40.365-40.365Z" transform="translate(-153.926 -146.871)" fill="#e6e8e8"/>
              <rect id="Rectangle_202" data-name="Rectangle 202" width="45.042" height="45.042" rx="2.697" transform="translate(23.383 25.264)" fill="#80a3ff"/>
              <path id="Path_372" data-name="Path 372" d="M309.609,187.713H227.778a4.407,4.407,0,0,0-4.407,4.407h0a4.407,4.407,0,0,0,4.407,4.407h81.832a4.407,4.407,0,0,0,4.407-4.407h0A4.407,4.407,0,0,0,309.609,187.713Z" transform="translate(-199.935 -104.89)" fill="#d9dbdb"/>
              <path id="Path_373" data-name="Path 373" d="M309.609,198.537H227.778a4.407,4.407,0,0,0-4.407,4.407h0a4.407,4.407,0,0,0,4.407,4.407h81.832a4.407,4.407,0,0,0,4.407-4.407h0A4.407,4.407,0,0,0,309.609,198.537Z" transform="translate(-199.935 -93.763)" fill="#d9dbdb"/>
              <path id="Path_374" data-name="Path 374" d="M272.446,209.037H227.778a4.407,4.407,0,0,0-4.407,4.407h0a4.407,4.407,0,0,0,4.407,4.407h44.669a4.407,4.407,0,0,0,4.407-4.407h0A4.407,4.407,0,0,0,272.446,209.037Z" transform="translate(-199.935 -82.971)" fill="#d9dbdb"/>
            </g>
            <g id="Group_325" data-name="Group 325" transform="translate(0.01 118.506)">
              <path id="Path_375" data-name="Path 375" d="M387.615,205.309v87.9a11.193,11.193,0,0,1-11.166,11.164H215.511a11.168,11.168,0,0,1-11.135-11.164v-87.9l91.618,54.019Z" transform="translate(-204.376 -205.309)" fill="#ffb031"/>
              <path id="Path_376" data-name="Path 376" d="M382.957,282.326l-58.969-58.969-29.555,17.426-29.565-17.432-58.973,58.973a11.064,11.064,0,0,0,8.055,3.5H374.888A11.108,11.108,0,0,0,382.957,282.326Z" transform="translate(-202.815 -186.764)" fill="#ff9433"/>
            </g>
          </g>
        </g>
        <g id="Group_330" data-name="Group 330" transform="translate(238.327 71.39)">
          <g id="Group_329" data-name="Group 329">
            <path id="Path_377" data-name="Path 377" d="M328.937,145.947a55.27,55.27,0,0,0-49.331,50.762,54.652,54.652,0,0,0,9.655,35.261,13.349,13.349,0,0,1,1.271,12.723l-4.35,10.472,17.779-4.609a13.4,13.4,0,0,1,8.7.673,55.042,55.042,0,1,0,16.272-105.283Z" transform="translate(-279.463 -145.673)" fill="#e74c3c"/>
            <g id="Group_328" data-name="Group 328" transform="translate(26.238 31.822)">
              <path id="Path_378" data-name="Path 378" d="M322.565,210.759l3.026-3.024s-2.4-5.664,7.672-15.211c5.995-5.684,7.337-11.188,6.848-15.686a15.724,15.724,0,0,0-13.786-13.788c-4.5-.487-10,.854-15.686,6.85-9.549,10.073-15.211,7.67-15.211,7.67L292.4,180.6Z" transform="translate(-292.402 -159.727)" fill="#fff"/>
              <path id="Path_379" data-name="Path 379" d="M296.584,177.42a8.336,8.336,0,0,0,11.652,11.65Z" transform="translate(-289.76 -144.862)" fill="#fff"/>
              <path id="Path_380" data-name="Path 380" d="M320.869,168.361l-1.884,1.884a18.214,18.214,0,0,0-5.806-5.775l1.9-1.9a4.1,4.1,0,1,1,5.792,5.792Z" transform="translate(-271.045 -161.365)" fill="#fff"/>
            </g>
          </g>
          <path id="Path_381" data-name="Path 381" d="M330.507,145.7a47.541,47.541,0,1,1-48.6,77.721,55,55,0,0,0,4.837,8.537,13.349,13.349,0,0,1,1.271,12.723l-4.35,10.472,17.779-4.609a13.4,13.4,0,0,1,8.7.673A55.031,55.031,0,1,0,330.507,145.7Z" transform="translate(-276.948 -145.664)" fill="#ce2029"/>
        </g>
        <path id="Path_382" data-name="Path 382" d="M167.252,124.025,179.269,151.6a2.771,2.771,0,0,1-1.444,3.648l-.428.185a2.772,2.772,0,0,1-3.652-1.466L162.158,126.2a2.771,2.771,0,0,1,1.594-3.675h0A2.769,2.769,0,0,1,167.252,124.025Z" transform="translate(-161.939 -98.249)" fill="#ffb031"/>
      </g>
    </g>
    <g id="Group_333" data-name="Group 333" transform="translate(160.315 110.359)">
      <path id="Path_383" data-name="Path 383" d="M192.253,218.877a8.835,8.835,0,1,0,8.834,8.836A8.834,8.834,0,0,0,192.253,218.877Zm0,12.411a3.576,3.576,0,1,1,3.575-3.575A3.576,3.576,0,0,1,192.253,231.288Z" transform="translate(-136.568 9.469)" fill="#ffc9c4"/>
      <path id="Path_384" data-name="Path 384" d="M309,236.507a8.835,8.835,0,1,0,8.834,8.834A8.833,8.833,0,0,0,309,236.507Zm0,12.411a3.576,3.576,0,1,1,3.575-3.577A3.578,3.578,0,0,1,309,248.918Z" transform="translate(-16.564 27.591)" fill="#ffc9c4"/>
      <path id="Path_385" data-name="Path 385" d="M343.592,168.839a6.765,6.765,0,1,0,6.765,6.765A6.764,6.764,0,0,0,343.592,168.839Zm0,9.5a2.738,2.738,0,1,1,2.738-2.738A2.738,2.738,0,0,1,343.592,178.342Z" transform="translate(21.124 -41.965)" fill="#ffc9c4"/>
      <path id="Path_386" data-name="Path 386" d="M285.052,115.477a7.152,7.152,0,1,0,7.152,7.152A7.152,7.152,0,0,0,285.052,115.477Zm0,10.048a2.895,2.895,0,1,1,2.894-2.9A2.895,2.895,0,0,1,285.052,125.525Z" transform="translate(-39.449 -96.816)" fill="#ffc9c4"/>
      <path id="Path_387" data-name="Path 387" d="M172.419,197.656a7.519,7.519,0,1,0,7.521,7.519A7.519,7.519,0,0,0,172.419,197.656Z" transform="translate(-155.602 -12.344)" fill="#ffc9c4"/>
      <path id="Path_388" data-name="Path 388" d="M320.156,209.931a5.469,5.469,0,1,0,5.469,5.469A5.469,5.469,0,0,0,320.156,209.931Z" transform="translate(-1.635 0.274)" fill="#ffc9c4"/>
      <path id="Path_389" data-name="Path 389" d="M232.12,116.586a7.994,7.994,0,1,0,7.994,7.994A7.994,7.994,0,0,0,232.12,116.586Z" transform="translate(-94.723 -95.676)" fill="#ffc9c4"/>
      <path id="Path_390" data-name="Path 390" d="M252.124,259.374a5.825,5.825,0,1,0,5.824,5.826A5.825,5.825,0,0,0,252.124,259.374Z" transform="translate(-71.933 51.096)" fill="#ffc9c4"/>
      <path id="Path_391" data-name="Path 391" d="M308.237,131.79a6.837,6.837,0,1,0,6.838,6.838A6.837,6.837,0,0,0,308.237,131.79Z" transform="translate(-15.292 -80.048)" fill="#ffc9c4"/>
      <circle id="Ellipse_81" data-name="Ellipse 81" cx="3.892" cy="3.892" r="3.892" transform="translate(46.886 104.897)" fill="#ffc9c4"/>
      <path id="Path_392" data-name="Path 392" d="M344.694,152.026a6.639,6.639,0,1,0,6.639,6.641A6.64,6.64,0,0,0,344.694,152.026Z" transform="translate(22.384 -59.247)" fill="#ffc9c4"/>
      <circle id="Ellipse_82" data-name="Ellipse 82" cx="4.236" cy="4.236" r="4.236" transform="translate(8.852 127.913)" fill="#ffc9c4"/>
      <path id="Path_393" data-name="Path 393" d="M259.687,112.982l2.661-2.661A2.371,2.371,0,1,0,259,106.967l-2.661,2.661-2.661-2.661a2.372,2.372,0,0,0-3.354,3.354l2.661,2.661-2.661,2.661A2.372,2.372,0,0,0,253.674,119l2.661-2.661L259,119a2.371,2.371,0,1,0,3.352-3.354Z" transform="translate(-68.51 -106.275)" fill="#ffc9c4"/>
      <path id="Path_394" data-name="Path 394" d="M170.376,152.632l2.661-2.661a2.372,2.372,0,0,0-3.354-3.354l-2.661,2.661-2.661-2.661a2.372,2.372,0,0,0-3.354,3.354l2.661,2.661-2.661,2.661a2.372,2.372,0,0,0,3.354,3.354l2.661-2.661,2.661,2.661a2.372,2.372,0,0,0,3.354-3.354Z" transform="translate(-160.315 -65.518)" fill="#ffc9c4"/>
      <path id="Path_395" data-name="Path 395" d="M324.342,232.228l2.255-2.253a2.009,2.009,0,1,0-2.841-2.841l-2.253,2.253-2.253-2.253a2.009,2.009,0,1,0-2.841,2.841l2.253,2.253-2.253,2.253a2.009,2.009,0,0,0,2.841,2.841l2.253-2.253,2.253,2.253a2.009,2.009,0,0,0,2.841-2.841Z" transform="translate(-0.469 17.354)" fill="#ffc9c4"/>
    </g>
  </g>
</svg>
